<svg width="61" height="32" viewBox="0 0 61 32" fill="none" xmlns="http://www.w3.org/2000/svg">
<path fill-rule="evenodd" clip-rule="evenodd" d="M0 3.57678V7.15356L0.199105 7.22125C0.308204 7.25885 0.981891 7.51004 1.69513 7.78078C2.40972 8.05001 3.37934 8.41702 3.8512 8.5945C4.31896 8.77199 4.78672 8.94797 5.25448 9.12545C5.55314 9.23826 6.04409 9.42327 6.34275 9.53457C6.64277 9.64738 7.44328 9.94971 8.12242 10.2069C9.59799 10.7649 10.2621 11.0161 10.9904 11.2884C11.289 11.4012 12.005 11.6719 12.5805 11.89C13.156 12.1096 13.8719 12.3804 14.172 12.4917C14.4706 12.603 15.2152 12.8842 15.8262 13.1159C16.4358 13.3475 17.0672 13.5867 17.2281 13.6453C17.389 13.7055 18.105 13.9747 18.8196 14.2439C19.6692 14.5643 20.5215 14.8832 21.3725 15.1976C22.0639 15.4533 22.6476 15.6819 22.6708 15.7075C22.7472 15.7902 22.5753 15.8729 21.5675 16.2354C20.3388 16.6776 18.4964 17.3545 10.6972 20.2333C7.31236 21.4832 3.52526 22.8821 2.28153 23.3408L0.0204557 24.1741L0.00954583 28.0878L0 32H61V24.866L60.2363 24.5787C59.8149 24.4223 59.0008 24.1139 58.4253 23.8943C57.8498 23.6747 57.2184 23.4356 57.022 23.3634C56.6988 23.2446 55.11 22.6444 53.4013 21.9961C53.033 21.8563 52.5707 21.6818 52.3757 21.6096C52.1793 21.5374 51.5207 21.2877 50.9097 21.0561C49.3769 20.474 48.1509 20.0107 47.7281 19.8558C47.5317 19.7836 46.9603 19.567 46.4557 19.3745C45.9512 19.182 45.5134 19.0255 45.482 19.0255C45.4357 19.0255 45.4247 19.4632 45.4247 21.578V24.132L46.0016 24.3471C46.318 24.4659 46.963 24.7111 47.4349 24.8916C47.9068 25.0736 48.4536 25.2796 48.6486 25.3518C48.845 25.424 49.411 25.6376 49.9087 25.8271C51.1074 26.2829 51.2547 26.3626 51.0256 26.4303C50.9002 26.4679 9.71936 26.4679 9.55026 26.4303C9.47934 26.4152 9.41934 26.3867 9.41934 26.3701C9.41934 26.3129 9.69481 26.1911 10.4544 25.9098C10.8649 25.7579 12.6596 25.0916 14.4433 24.4283C16.2285 23.765 18.1036 23.0686 18.6096 22.8806C19.1169 22.6926 20.9061 22.0262 22.5876 21.402C24.2677 20.7763 26.1988 20.0588 26.8779 19.8062C27.493 19.579 28.1066 19.3504 28.7203 19.1233L29.3272 18.8962V13.0993L28.7421 12.8767C28.4189 12.7534 27.9389 12.5729 27.6743 12.4721C27.4098 12.3728 26.7211 12.1111 26.1456 11.8915C25.5701 11.6719 24.9387 11.4328 24.7437 11.3591C24.5473 11.2869 23.9159 11.0477 23.3404 10.8281C22.0285 10.3272 20.8802 9.89105 20.6606 9.81133C20.5693 9.77824 20.0224 9.57067 19.4469 9.35107C18.8714 9.13147 18.0804 8.82914 17.689 8.68174C17.2977 8.53434 16.7222 8.31624 16.4112 8.19892C16.1044 8.0816 15.7975 7.96578 15.4907 7.84997C15.2943 7.77777 14.6643 7.53711 14.0888 7.31751C13.5119 7.09791 12.8819 6.85875 12.6855 6.78656C12.4905 6.71286 11.915 6.49626 11.409 6.30374C11.019 6.15483 10.629 6.00592 10.2389 5.85852C10.1026 5.80738 9.95392 5.73819 9.91028 5.7036C9.83255 5.64343 9.83255 5.64042 9.91574 5.59229C10.0507 5.51107 51.3584 5.52461 51.4893 5.60432C51.5861 5.66298 51.5848 5.66599 51.3843 5.76075C51.2165 5.83897 47.0053 7.41227 45.8025 7.84545L45.4466 7.9733L45.4357 10.7514C45.4288 12.4089 45.4398 13.5295 45.4629 13.5295C45.4984 13.5295 49.8337 11.9366 57.9439 8.94345L60.9795 7.82439L60.9891 3.9122L61 0H0V3.57678ZM37.9106 10.7755L35.524 11.6629V20.3777L36.2986 20.6695C36.7241 20.8305 37.3746 21.0756 37.7428 21.214C38.111 21.3539 38.8256 21.6246 39.3302 21.8157C39.8334 22.0082 40.2725 22.1646 40.3039 22.1646C40.3503 22.1646 40.3585 21.7404 40.3489 19.6181L40.338 17.0702L39.3616 16.7107C38.8243 16.5122 38.3565 16.3256 38.3224 16.2941C38.2692 16.2459 38.276 16.2279 38.3701 16.1737C38.4315 16.1391 38.8993 15.9586 39.4093 15.7721L40.338 15.4352L40.3489 12.6586C40.3557 11.1319 40.3462 9.88353 40.3285 9.88503C40.3107 9.88653 39.2225 10.2866 37.9106 10.7755Z" fill="black"/>
</svg>
